<svg xmlns="http://www.w3.org/2000/svg" viewBox="0 0 53.82 53.82"><title>Asset 4</title><g id="Layer_2" data-name="Layer 2"><g id="Layer_1-2" data-name="Layer 1"><path d="M53,18.23H41.67V13.89h1.74v1.74a.87.87,0,0,0,.53.8,1,1,0,0,0,.33.06.86.86,0,0,0,.62-.25l4.34-4.34a.87.87,0,0,0,0-1.23L44.89,6.33a.86.86,0,0,0-1.48.61V8.68H41.67V.87A.87.87,0,0,0,40.8,0H9.55a.85.85,0,0,0-.61.24L.25,8.94A.85.85,0,0,0,0,9.55H0V53a.86.86,0,0,0,.87.86H40.8a.86.86,0,0,0,.87-.86V40.8h7.81a.87.87,0,0,0,.87-.87v-2.6H53a.86.86,0,0,0,.86-.87V19.1A.86.86,0,0,0,53,18.23Zm-8.69-7.81a.87.87,0,0,0,.87-.87V9l2.25,2.25-2.25,2.24V13a.87.87,0,0,0-.87-.87H33.86V10.42ZM21.7,13V11.29H20V13H16.49V8.68h8.69V13ZM20,6.08a.87.87,0,1,1,.86.86A.87.87,0,0,1,20,6.08Zm3.31.86a2.48,2.48,0,0,0,.16-.86,2.61,2.61,0,1,0-5.21,0,2.48,2.48,0,0,0,.16.86H14.76V5.69l6.07-3.8,6.08,3.8V6.94ZM8.68,3V8.68H3ZM39.93,52.09H1.74V10.42H9.55a.87.87,0,0,0,.87-.87V1.74h7.39L13.43,4.47a.89.89,0,0,0-.41.74v2.6a.87.87,0,0,0,.87.87h.87V13H13v1.74H28.65V13H26.91V8.68h.87a.87.87,0,0,0,.87-.87V5.21a.89.89,0,0,0-.41-.74L23.86,1.74H39.93V8.68H33a.87.87,0,0,0-.87.87V13a.87.87,0,0,0,.87.87h6.94v4.34H23.44a.87.87,0,0,0-.87.87v2.6H20a.87.87,0,0,0-.87.87V39.93a.87.87,0,0,0,.87.87h20Zm8.68-13H20.83V23.44H48.61Zm3.48-3.48H50.35v-13a.87.87,0,0,0-.87-.87H24.31V20H52.09Z"/><path d="M33.86,37.33h1.73V35.59a2.61,2.61,0,1,0,0-5.21H33.86a.87.87,0,1,1,0-1.73H38.2V26.91H35.59V25.18H33.86v1.73a2.61,2.61,0,1,0,0,5.21h1.73a.87.87,0,1,1,0,1.74H31.25v1.73h2.61Z"/><path d="M9.55,42.54V40.8a.87.87,0,0,0-1.48-.61L3.73,44.53a.87.87,0,0,0,0,1.23L8.07,50.1a.88.88,0,0,0,.61.25A.92.92,0,0,0,9,50.29a.88.88,0,0,0,.54-.81V47.75H20a.86.86,0,0,0,.86-.87V43.41a.86.86,0,0,0-.86-.87ZM19.1,46H8.68a.87.87,0,0,0-.87.87v.51L5.57,45.14,7.81,42.9v.51a.86.86,0,0,0,.87.86H19.1Z"/><path d="M23.44,37.33h4.34V35.59H24.31V25.18H22.57V36.46A.87.87,0,0,0,23.44,37.33Z"/><path d="M45.14,37.33h1.74V26a.86.86,0,0,0-.87-.86H41.67v1.73h3.47Z"/><rect x="5.21" y="16.49" width="15.63" height="1.74"/><rect x="3.47" y="19.97" width="13.89" height="1.74"/><rect x="3.47" y="23.44" width="13.89" height="1.74"/><rect x="3.47" y="26.91" width="13.89" height="1.74"/><rect x="29.52" y="48.61" width="8.68" height="1.74"/><rect x="29.52" y="45.14" width="8.68" height="1.74"/></g></g></svg>