<svg xmlns="http://www.w3.org/2000/svg" viewBox="0 0 50.62 50.62"><title>Page-1</title><g id="Layer_2" data-name="Layer 2"><g id="Layer_1-2" data-name="Layer 1"><g id="Page-1"><path id="Shape" d="M50.12,30.79l-8.44-3.65a.86.86,0,0,0-.67,0l-2.2,1V11.81s0,0,0-.05a.78.78,0,0,0,0-.22l0-.08a1,1,0,0,0-.16-.24l-11-11a.85.85,0,0,0-.25-.17l-.07,0a.64.64,0,0,0-.23,0H2.53A2.53,2.53,0,0,0,0,2.53V48.09a2.53,2.53,0,0,0,2.53,2.53H36.28a2.51,2.51,0,0,0,2.38-1.71l2.19,1.56a.84.84,0,0,0,1,0l6.59-4.69a5.19,5.19,0,0,0,2.2-4.23v-10A.83.83,0,0,0,50.12,30.79ZM27.84,2.88,35.93,11H27.84Zm9.28,45.21a.84.84,0,0,1-.84.85H2.53a.85.85,0,0,1-.84-.85V2.53a.85.85,0,0,1,.84-.84H26.16V11a1.69,1.69,0,0,0,1.68,1.69h9.28V28.82l-4.55,2a.84.84,0,0,0-.51.77v10a5.24,5.24,0,0,0,2.2,4.23l2.86,2Zm11.82-6.54a3.53,3.53,0,0,1-1.5,2.85l-6.1,4.34-6.1-4.34a3.52,3.52,0,0,1-1.49-2.85V32.12l4.53-2,0,0,3-1.3,7.6,3.28Z"/><path d="M36.79,39.6a.83.83,0,0,0-1.18.17A.84.84,0,0,0,35.77,41l3.38,2.53a.84.84,0,0,0,1.16-.15l6.75-8.44a.83.83,0,0,0,.13-.83.86.86,0,0,0-.66-.53.83.83,0,0,0-.78.31l-6.24,7.8Z"/><path d="M18.9,10.29,5.4,20.42a.85.85,0,0,0-.34.67v4.22A.84.84,0,0,0,6.41,26l2-1.52V37.12a1.68,1.68,0,0,0,1.68,1.69H28.69a1.68,1.68,0,0,0,1.68-1.69V24.47l2,1.52a.84.84,0,0,0,1.35-.68V21.09a.85.85,0,0,0-.34-.67L19.91,10.29A.86.86,0,0,0,18.9,10.29ZM16,37.12V27h6.75v4.22h-.84a.85.85,0,1,0,0,1.69h.84v4.21Zm12.66,0H24.47V27a1.69,1.69,0,0,0-1.69-1.69H16A1.69,1.69,0,0,0,14.34,27V37.12H10.12V23.2l9.29-7,9.28,7Zm3.37-13.5L19.91,14.51a.86.86,0,0,0-1,0L6.75,23.62v-2.1L19.41,12l12.65,9.5Z"/><path d="M5.06,5.91H20.25a.85.85,0,0,0,0-1.69H5.06a.85.85,0,0,0,0,1.69Z"/><path d="M5.06,9.28H16a.85.85,0,0,0,0-1.69h-11a.85.85,0,0,0,0,1.69Z"/><path d="M5.06,12.66H11A.85.85,0,0,0,11,11H5.06a.85.85,0,0,0,0,1.69Z"/><path d="M5.06,42.19H20.25a.85.85,0,0,0,0-1.69H5.06a.85.85,0,0,0,0,1.69Z"/><path d="M23.62,40.5a.85.85,0,0,0,0,1.69h5.91a.85.85,0,0,0,0-1.69Z"/><path d="M13.5,43.87H5.06a.85.85,0,0,0,0,1.69H13.5a.85.85,0,0,0,0-1.69Z"/><path d="M30.37,43.87H16.87a.85.85,0,0,0,0,1.69h13.5a.85.85,0,1,0,0-1.69Z"/></g></g></g></svg>