<svg xmlns="http://www.w3.org/2000/svg" viewBox="0 0 52.41 52.41"><title>Project-3</title><g id="Layer_2" data-name="Layer 2"><g id="Layer_1-2" data-name="Layer 1"><g id="Project-3"><path d="M49.79,14h-.87V2.62A2.62,2.62,0,0,0,46.3,0H16.6A2.62,2.62,0,0,0,14,2.62V14H12.23V13.1A6.12,6.12,0,0,0,0,13.1V46.3a6.12,6.12,0,0,0,6.11,6.11H49.79a2.62,2.62,0,0,0,2.62-2.62V16.6A2.62,2.62,0,0,0,49.79,14ZM15.72,2.62a.87.87,0,0,1,.88-.87H46.3a.87.87,0,0,1,.87.87V14H15.72ZM1.75,13.1a4.37,4.37,0,0,1,8.73,0V42a6.09,6.09,0,0,0-8.63-.1.47.47,0,0,0-.1.1ZM50.66,49.79a.87.87,0,0,1-.87.87H6.11a4.37,4.37,0,1,1,4.37-4.36.88.88,0,0,0,1.75,0V15.72H49.79a.87.87,0,0,1,.87.88Z"/><path d="M32,17.65a.86.86,0,0,0-1,0L17,28.13a.86.86,0,0,0-.35.7v4.36a.87.87,0,0,0,.87.88.82.82,0,0,0,.52-.18l3-2.22V48a.88.88,0,0,0,.88.88H41.06a.87.87,0,0,0,.87-.88V31.67l3,2.22a.82.82,0,0,0,.52.18.87.87,0,0,0,.88-.88V28.83a.86.86,0,0,0-.35-.7Zm4.72,19H26.21V34.94H36.69ZM26.21,38.44H36.69v1.74H26.21Zm0,3.49H36.69v1.75H26.21Zm0,5.24V45.42H36.69v1.75Zm14,0H38.44V34.07a.89.89,0,0,0-.88-.88H25.33a.88.88,0,0,0-.87.88v13.1H22.71V30.36l8.74-6.56,8.73,6.56Zm4.37-15.72L32,22a.89.89,0,0,0-1,0L18.34,31.45V29.26l13.11-9.82,13.1,9.82Z"/><path d="M19.22,5.24h3.49V7H19.22Z"/><path d="M24.46,5.24H43.68V7H24.46Z"/><path d="M19.22,10.48H43.68v1.75H19.22Z"/></g></g></g></svg>