<svg xmlns="http://www.w3.org/2000/svg" viewBox="0 0 62.26 57.05"><title>Asset 11</title><g id="Layer_2" data-name="Layer 2"><g id="Layer_1-2" data-name="Layer 1"><path d="M19.2,20a.9.9,0,0,0-1.28.14,1.79,1.79,0,0,1-1.38.7,1.75,1.75,0,0,1-1.37-.7.91.91,0,1,0-1.42,1.14,3.51,3.51,0,0,0,5.58,0A.91.91,0,0,0,19.2,20Z"/><path d="M12.37,14.59a.91.91,0,0,0-.91.91v1a.92.92,0,0,0,1.83,0v-1A.92.92,0,0,0,12.37,14.59Z"/><path d="M20.71,14.59a.91.91,0,0,0-.91.91v1a.91.91,0,0,0,1.82,0v-1A.91.91,0,0,0,20.71,14.59Z"/><path d="M49.42,25.21a.91.91,0,0,0-1.29.14,1.75,1.75,0,0,1-1.37.7,1.79,1.79,0,0,1-1.38-.7A.91.91,0,1,0,44,26.49a3.51,3.51,0,0,0,5.58,0A.91.91,0,0,0,49.42,25.21Z"/><path d="M42.59,19.8a.91.91,0,0,0-.91.91v1a.91.91,0,0,0,1.82,0v-1A.91.91,0,0,0,42.59,19.8Z"/><path d="M50.93,19.8a.91.91,0,0,0-.91.91v1a.91.91,0,0,0,1.82,0v-1A.91.91,0,0,0,50.93,19.8Z"/><path d="M59.72,37.83,52.58,35l-.11,0c4.93-1.12,7.27-3,7.37-3.09a.91.91,0,0,0,.33-.83,117.35,117.35,0,0,1-1-14.46,12.37,12.37,0,0,0-24.74,0c0,1.87-.09,4.16-.23,6.32l-2,1-5.84-2.92,0,0a10.22,10.22,0,0,0,.52-2.55,3,3,0,0,0,1.07-5.13V7.16A5.06,5.06,0,0,0,25.64,3a4,4,0,0,0-3.89-3H13.42A8.22,8.22,0,0,0,5.21,8.21v5a3,3,0,0,0,1.07,5.13,10.32,10.32,0,0,0,4.14,7.49v2.52L2.88,30.63A4,4,0,0,0,0,34.5V44.68a.91.91,0,0,0,.91.91H1V56.14a.92.92,0,0,0,1.83,0V45.59H6.25V56.14a.92.92,0,0,0,1.83,0V40.41a4.07,4.07,0,0,0-.68-2.24L5.84,35.83a.92.92,0,1,0-1.52,1l1.56,2.33a2.25,2.25,0,0,1,.37,1.23v3.35H1.82V34.5A2.2,2.2,0,0,1,3.4,32.38l3.13-.94a10.29,10.29,0,0,0,14.89,6.67,3,3,0,0,0,2.42,1.23H24v.13a8.21,8.21,0,0,0,4.16,7.13v1.49a.13.13,0,0,1-.09.13l-3.4,1.13a4,4,0,0,0-2.76,3.83v3a.92.92,0,0,0,1.83,0v-3a2.2,2.2,0,0,1,1.51-2.1l1-.33a7.17,7.17,0,0,0,11.9,0l1,.33a2.21,2.21,0,0,1,1.52,2.1v3a.91.91,0,0,0,1.82,0v-3a4,4,0,0,0-2.76-3.83l-3.4-1.13a.13.13,0,0,1-.09-.13V46.6a8.19,8.19,0,0,0,3.86-4.92,9.24,9.24,0,0,0,15.49-3.55L59,39.53a2.18,2.18,0,0,1,1.39,2v4.27H57.05V44.68a.92.92,0,1,0-1.83,0V56.14a.92.92,0,0,0,1.83,0V47.67h2.34v8.47a.92.92,0,0,0,1.83,0V47.67h.13A.87.87,0,0,0,62,47.4a.91.91,0,0,0,.27-.64V41.58A4,4,0,0,0,59.72,37.83ZM36.21,16.54a10.55,10.55,0,0,1,21.1,0,119.53,119.53,0,0,0,1,14.17,19.61,19.61,0,0,1-6.45,2.48V31.74a9.88,9.88,0,0,0,1.38-.94,10.25,10.25,0,0,0,3.57-5.72,10.38,10.38,0,0,0,.26-2.29c0-5.15-3.73-5.89-7.33-6.61-2.3-.45-4.67-.92-6.56-2.43a.89.89,0,0,0-1-.11.9.9,0,0,0-.52.82s0,2.42-3.48,3.28a.91.91,0,0,0,.44,1.77c2.88-.72,4.06-2.33,4.53-3.55a18.84,18.84,0,0,0,6.19,2c3.85.77,5.86,1.33,5.86,4.82a9.19,9.19,0,0,1-.2,1.89,8.53,8.53,0,0,1-2.94,4.7,8.47,8.47,0,0,1-10.25.3,10.27,10.27,0,0,0-2.49-3.85V21.75A.91.91,0,0,0,38.9,21a.87.87,0,0,0-.88,0l-2,1C36.15,20,36.21,18.22,36.21,16.54Zm1.3,6.69v3.3l-3.3-1.65Zm-10.68,0,3.3,1.65-3.3,1.65Zm-4.95,10v.87a3,3,0,0,0-1,2.26,8.39,8.39,0,0,1-4.3,1.17,8.5,8.5,0,0,1-8.26-6.6l2.26-.67A6.12,6.12,0,0,0,22,31.87,9.94,9.94,0,0,0,21.88,33.21ZM12.24,29V26.93a10.31,10.31,0,0,0,8.6,0v2.12a4.3,4.3,0,0,1-8.6,0Zm4.3-3a8.47,8.47,0,0,1-8.46-8.47.92.92,0,0,0-.92-.91,1.17,1.17,0,1,1,0-2.34H9.25a.9.9,0,0,0,.86-.63L11,11.19c2.1,0,8.59-.34,12.25-2.17a.91.91,0,1,0-.81-1.63c-3.93,2-12,2-12.1,2a.93.93,0,0,0-.87.62l-.83,2.5H7V8.21a6.4,6.4,0,0,1,6.39-6.39h8.33a2.2,2.2,0,0,1,2.18,1.87.92.92,0,0,0,.45.65,3.25,3.25,0,0,1,1.67,2.82v5.35H24.88a.92.92,0,0,0,0,1.83h1a1.17,1.17,0,0,1,0,2.34.91.91,0,0,0-.91.91A8.48,8.48,0,0,1,16.54,26.05Zm6.12,3v-3.2A10.63,10.63,0,0,0,25,23.42v2.41a10.21,10.21,0,0,0-2.35,3.47ZM36.3,50.14a5.33,5.33,0,0,1-8.26,0l.58-.19A2,2,0,0,0,30,48.09v-.72a8.42,8.42,0,0,0,2.21.3,8.56,8.56,0,0,0,2.22-.3v.72A2,2,0,0,0,35.72,50Zm3.17-12.63a.92.92,0,0,0-.92.91v1a6.38,6.38,0,0,1-12.76,0v-1a.91.91,0,0,0-.91-.91h-1a1.17,1.17,0,0,1-.59-2.18,1.28,1.28,0,0,0,.22-.17c2.25-.07,9.56-.49,14.36-3.24a.91.91,0,0,0-.9-1.58c-4.21,2.4-10.82,2.88-13.22,3v-.11a8.47,8.47,0,0,1,1.44-4.72.89.89,0,0,0,.29.29.92.92,0,0,0,.48.14,1,1,0,0,0,.41-.1l5.84-2.92L38,28.82a.91.91,0,0,0,.4.1.92.92,0,0,0,.77-.43,8.48,8.48,0,0,1,1.45,4.72v1.33a.9.9,0,0,0,.45.79,1.17,1.17,0,0,1-.58,2.18Zm7.29,5.21a7.4,7.4,0,0,1-6.23-3.39,3,3,0,0,0,1.93-5.25v-.87a10,10,0,0,0-.06-1.09,10.34,10.34,0,0,0,7.62.43v1.34a3,3,0,0,0,1.88,2.78l2,.78A7.41,7.41,0,0,1,46.76,42.72Z"/><path d="M34.83,40.84a.91.91,0,0,0-1.28.13,1.77,1.77,0,0,1-1.38.71A1.74,1.74,0,0,1,30.8,41a.92.92,0,0,0-1.29-.13.91.91,0,0,0-.13,1.28,3.51,3.51,0,0,0,5.58,0A.91.91,0,0,0,34.83,40.84Z"/><circle cx="29.06" cy="37.39" r="0.91"/><circle cx="35.26" cy="37.39" r="0.91"/></g></g></svg>