<svg xmlns="http://www.w3.org/2000/svg" viewBox="0 0 52.06 52.06"><title>Asset 6</title><g id="Layer_2" data-name="Layer 2"><g id="Layer_1-2" data-name="Layer 1"><path d="M26,15.11a1.68,1.68,0,0,1,1.68,1.68h1.68a3.37,3.37,0,0,0-2.52-3.24V11.76H25.19v1.79a3.35,3.35,0,0,0,.84,6.6,1.68,1.68,0,1,1-1.68,1.68H22.67a3.35,3.35,0,0,0,2.52,3.24v1.8h1.68v-1.8a3.35,3.35,0,0,0-.84-6.6,1.68,1.68,0,0,1,0-3.36Z"/><path d="M52.06,21.83V15.11H47V0h-34L5,8.91v6.2H0v6.72H5v2.85L1.83,23.51H0V42H7.33l.44-1.41,3.55,2.13,2.36.62a2.48,2.48,0,0,0-.25,1.08A2.62,2.62,0,0,0,16,47a2.62,2.62,0,0,0,2.61,2.53,2.53,2.53,0,0,0,.87-.16,2.59,2.59,0,0,0,4,1.32l.62.62a2.5,2.5,0,0,0,1.79.74H26a2.52,2.52,0,0,0,2.36-1.66,2.49,2.49,0,0,0,4.26-1.06A2.46,2.46,0,0,0,36,47.66a2.47,2.47,0,0,0,3.45-2.32v-.28a2.49,2.49,0,0,0-.5-1.51l-.28-.37,3.12-2.49L42.21,42h9.85V23.51H50.38L47,24.46V21.83ZM13.43,2.1V8.4H7.76Zm-6.71,8h8.39V1.68H45.34V15.11h-5V11.87l-9.91,6.6,9.91,6.61V21.83h5v3.11l-7.77,2.2.72,2.32-10.47.7a5.8,5.8,0,0,0-2.23.61l-1.8.9a5.83,5.83,0,0,0-2.56-.6H15.31l-4-2,.6-1.9-5.24-1.9V21.83h5v3.25l9.91-6.61-9.91-6.6v3.24h-5Zm-5,10.07V16.79H13.43V15l5.21,3.47-5.21,3.47V20.15ZM6.1,40.3H1.68V25.24l8.2,3Zm6,.9L8.29,38.92l2.57-8.2,4.06,2h6.31a4.26,4.26,0,0,1,2.22.63L28,36.24a1.14,1.14,0,0,1,.53,1v.29a1.13,1.13,0,0,1-1.14,1.13,1.1,1.1,0,0,1-.58-.16l-3.15-1.89a3.34,3.34,0,0,0-4,.49l-4.83,4.83Zm14.79,8.34a.85.85,0,0,1-.84.84h-.14a.84.84,0,0,1-.6-.25l-.69-.69a.84.84,0,0,1-.25-.6V48.7a.85.85,0,0,1,.84-.84h.14a.84.84,0,0,1,.6.25l.69.69a.84.84,0,0,1,.25.6Zm4.2-.84a.85.85,0,0,1-.84.84.82.82,0,0,1-.67-.34L27.88,47a.82.82,0,0,1-.17-.5v-.28a.84.84,0,0,1,1.51-.5l1.68,2.24a.82.82,0,0,1,.17.5ZM34.43,47a.85.85,0,0,1-.84.84.83.83,0,0,1-.68-.34l-1.67-2.23a.87.87,0,0,1-.17-.51V44.5a.84.84,0,0,1,.84-.84.85.85,0,0,1,.67.34l1.68,2.24a.82.82,0,0,1,.17.5Zm3.35-1.68a.84.84,0,0,1-1.51.51l-1.68-2.24a.93.93,0,0,1-.16-.51v-.28a.84.84,0,0,1,.84-.84.85.85,0,0,1,.67.34l1.68,2.24a.81.81,0,0,1,.16.5Zm-.11-3.5-.39-.53a2.51,2.51,0,0,0-4.44.87,2.46,2.46,0,0,0-3.36,1.68,2.46,2.46,0,0,0-.93-.2A2.52,2.52,0,0,0,26,46.18v.11a2.69,2.69,0,0,0-.7-.11h-.14a2.52,2.52,0,0,0-2.52,2.52v.14a3.16,3.16,0,0,0,0,.32l-.1.1a.94.94,0,1,1-1.33-1.33l3.67-3.67-1.18-1.19-4.52,4.52a1,1,0,0,1-.67.27.94.94,0,0,1-.66-1.61l4.51-4.51-1.18-1.19-4.52,4.52a.95.95,0,0,1-1.61-.67,1,1,0,0,1,.28-.67l5.48-5.48A1.63,1.63,0,0,1,22.82,38L26,39.9a2.75,2.75,0,0,0,1.44.4,2.81,2.81,0,0,0,2.82-2.81V37.2a2.82,2.82,0,0,0-1.32-2.39L25.5,32.69l.84-.42a4.23,4.23,0,0,1,1.6-.43l10.87-.73L41.26,39ZM50.38,25.22V40.3H43.44l-3.76-12ZM38.62,20.15v1.79l-5.2-3.47L38.62,15v1.79H50.38v3.36Z"/><path d="M16.79,3.36H43.66V5H16.79Z"/><path d="M16.79,6.72H43.66V8.4H16.79Z"/></g></g></svg>