<svg xmlns="http://www.w3.org/2000/svg" viewBox="0 0 58 58"><title>Asset 3</title><g id="Layer_2" data-name="Layer 2"><g id="Layer_1-2" data-name="Layer 1"><path d="M56.13,46.88V38.35a2.82,2.82,0,0,0-1.87-2.63V34.61a2.81,2.81,0,0,0-2.81-2.8H41a2.8,2.8,0,0,0-2.64-1.87V18.23a6.55,6.55,0,0,0-3.3-5.69L17.12,2.32a4.67,4.67,0,0,0-8.7,2.33h0L7.51,31.9a4.66,4.66,0,0,0-2.9,7.28L2,42.28A8.1,8.1,0,0,0,0,47.55a8,8,0,0,0,2.37,5.72l2.81,2.81A6.48,6.48,0,0,0,9.81,58h9.84V56.13H17.77V51l-3.21-2.57a4.67,4.67,0,0,1-1.73-3.13l-.67-6a4.6,4.6,0,0,0-.78-6.37L15.73,8.54a5.45,5.45,0,0,0,.46-.38l9.6,9.6a3.65,3.65,0,0,0-.53,1.89,3.73,3.73,0,0,0,2.8,3.6v6.69h-.33A2.8,2.8,0,0,0,25,32.19L22.47,44.72v2.15A6.54,6.54,0,0,0,27.13,58H51.45a6.54,6.54,0,0,0,4.68-11.12ZM8.42,33.68a2.81,2.81,0,1,1-2.81,2.8A2.81,2.81,0,0,1,8.42,33.68Zm5,16.21,2.51,2v.49H14v1.87H15.9v1.87H9.81A4.66,4.66,0,0,1,6.5,54.76L3.69,52a6.22,6.22,0,0,1-.32-8.45l2.61-3a4.7,4.7,0,0,0,2.44.7,4.55,4.55,0,0,0,2-.48L11,45.5A6.5,6.5,0,0,0,13.39,49.89ZM9.64,32l-.26-.08L10.17,8.3a4.62,4.62,0,0,0,2.93,1,3.8,3.8,0,0,0,.59-.06ZM13.1,7.48a2.81,2.81,0,1,1,2.8-2.8A2.81,2.81,0,0,1,13.1,7.48ZM41.16,37.42H43V35.55H41.16V33.68H51.45a.94.94,0,0,1,.94.93v.94H44.9v1.87h8.42a.94.94,0,0,1,.94.93v7.19a6.58,6.58,0,0,0-2.81-.64H41.16ZM17.32,6.65a4.77,4.77,0,0,0,.44-1.81l16.36,9.33a4.67,4.67,0,0,1,2.36,4.06V29.94H29.94V23.25a3.73,3.73,0,1,0-2.83-6.82Zm9.81,13A1.87,1.87,0,1,1,29,21.52,1.88,1.88,0,0,1,27.13,19.65ZM24.32,45l2.49-12.44a.93.93,0,0,1,.92-.75H38.35a.94.94,0,0,1,.94.93V44.9H27.13a6.58,6.58,0,0,0-2.81.64ZM51.45,56.13H27.13a4.68,4.68,0,0,1,0-9.36H51.45a4.68,4.68,0,0,1,0,9.36Z"/><path d="M50.52,47.71A3.74,3.74,0,0,0,47.71,49a3.69,3.69,0,0,0-5.61,0,3.71,3.71,0,0,0-5.62,0,3.69,3.69,0,0,0-5.61,0,3.74,3.74,0,1,0,0,4.9,3.69,3.69,0,0,0,5.61,0,3.71,3.71,0,0,0,5.62,0,3.69,3.69,0,0,0,5.61,0,3.7,3.7,0,0,0,2.81,1.29,3.74,3.74,0,0,0,0-7.48ZM28.06,53.32a1.87,1.87,0,1,1,1.88-1.87A1.87,1.87,0,0,1,28.06,53.32Zm5.62,0a1.87,1.87,0,1,1,1.87-1.87A1.87,1.87,0,0,1,33.68,53.32Zm5.61,0a1.87,1.87,0,1,1,1.87-1.87A1.87,1.87,0,0,1,39.29,53.32Zm5.61,0a1.87,1.87,0,1,1,1.87-1.87A1.87,1.87,0,0,1,44.9,53.32Zm5.62,0a1.87,1.87,0,1,1,1.87-1.87A1.87,1.87,0,0,1,50.52,53.32Z"/><path d="M38.35,33.68H28.23l-1.08,5.43,0,2H38.35Zm-1.87,5.61H29l.75-3.74h6.71Z"/><rect x="48.65" y="39.29" width="3.74" height="1.87"/><rect x="43.03" y="39.29" width="3.74" height="1.87"/></g></g></svg>