<svg xmlns="http://www.w3.org/2000/svg" viewBox="0 0 67.69 67.42"><title>outline</title><g id="Layer_2" data-name="Layer 2"><g id="Layer_1-2" data-name="Layer 1"><g id="outline"><path d="M11.17,29.11a1.12,1.12,0,0,0-1,.55L6.8,35.31a1.21,1.21,0,0,0-.16.58v3A15.69,15.69,0,1,0,28.5,42.68a15.52,15.52,0,0,0-3.77-3.77v-3a1.1,1.1,0,0,0-.16-.58l-3.39-5.65a1.14,1.14,0,0,0-1-.55H16.82V28a3.39,3.39,0,0,0,0-6.78H14.56a3.39,3.39,0,0,0-3.25,2.42v-.16H10.18V22.33a3.41,3.41,0,0,0-2.26-3.2V17.52A.56.56,0,0,1,8.48,17h.76a3.4,3.4,0,0,0,3.2,2.26H14.7A3.42,3.42,0,0,0,17.9,17h1.51a3.42,3.42,0,0,0,3.2,2.26h2.26A3.4,3.4,0,0,0,28.07,17H29.4v3.25a1.14,1.14,0,0,0,.54,1l5.66,3.39a1.15,1.15,0,0,0,.58.16h3a15.68,15.68,0,0,0,28.46-8v0q0-.49,0-1a15.68,15.68,0,0,0-28.49-9h-3a1.15,1.15,0,0,0-.58.16l-5.66,3.39a1.14,1.14,0,0,0-.54,1V14.7H28.07a3.41,3.41,0,0,0-3.2-2.27H22.61a3.43,3.43,0,0,0-3.2,2.27H17.9a3.43,3.43,0,0,0-3.2-2.27H12.44a3.41,3.41,0,0,0-3.2,2.27H8.48a2.83,2.83,0,0,0-2.83,2.82v1.61a3.4,3.4,0,0,0-2.26,3.2v2.26A3.39,3.39,0,0,0,10,25.72h1.33v-.16A3.4,3.4,0,0,0,14.56,28v1.13ZM52,2.26A13.44,13.44,0,0,1,65.43,15.69v.17a5.77,5.77,0,0,1-3.19.12c0-.1,0-.2,0-.29a10.24,10.24,0,1,0-.32,2.54,8.09,8.09,0,0,0,3.25,0A13.42,13.42,0,1,1,52,2.26Zm8,13.43a8,8,0,1,1-8-8A8,8,0,0,1,60,15.69ZM31.66,11.8l4.83-2.9h1.37a15.67,15.67,0,0,0,0,13.57H36.49l-4.83-2.9Zm-9,2.9h2.26a1.13,1.13,0,0,1,0,2.26H22.61a1.13,1.13,0,1,1,0-2.26Zm-10.17,0H14.7a1.13,1.13,0,1,1,0,2.26H12.44a1.13,1.13,0,1,1,0-2.26ZM7.92,24.59a1.14,1.14,0,0,1-2.27,0V22.33a1.14,1.14,0,0,1,2.27,0ZM29.11,51.72A13.43,13.43,0,0,1,15.87,65.14a5.92,5.92,0,0,1,0-3.18,10.21,10.21,0,1,0-2.27-.21A8.12,8.12,0,0,0,13.51,65a13.43,13.43,0,1,1,15.6-13.25Zm-21.41,0a8,8,0,1,1,8,8h0A8,8,0,0,1,7.7,51.72Zm5.73-27.13a1.12,1.12,0,0,1,1.13-1.13h2.26a1.13,1.13,0,0,1,0,2.26H14.56A1.13,1.13,0,0,1,13.43,24.59Zm6.14,6.78,2.9,4.84v1.37a15.67,15.67,0,0,0-13.57,0V36.21l2.91-4.84Z"/><circle cx="15.69" cy="34.06" r="1.55"/><circle cx="34.34" cy="15.69" r="1.55"/></g></g></g></svg>