<svg xmlns="http://www.w3.org/2000/svg" viewBox="0 0 61 42.71"><title>outline (2)</title><g id="Layer_2" data-name="Layer 2"><g id="Layer_1-2" data-name="Layer 1"><g id="outline"><path d="M60.39,16.14,54.7,8.55a1,1,0,0,0-.81-.41h0a5.08,5.08,0,1,0-8.12,0h0a1,1,0,0,0-.72.3l-6.1,6.1-3.77,3.77a5.08,5.08,0,1,0-9.31,0l-3.78-3.77L16,8.44a1,1,0,0,0-.72-.3h0a5.09,5.09,0,1,0-8.13,0h0a1.05,1.05,0,0,0-.82.4L.61,16.14A3,3,0,0,0,3,21a3,3,0,0,0,2.29-1.05L6.1,19v2.29L4.32,39.36A3,3,0,0,0,7,42.69l.33,0h.06a3,3,0,0,0,3-2.67l.82-7L12,40a3,3,0,0,0,3,2.68h.06a3,3,0,0,0,3-3c0-.11,0-.22,0-.32L16.27,21.31V16.69l4.36,4.37,4.79,4.78v5.58l-1.54,7.69a3,3,0,0,0,5.91,1.17l.71-3.56.71,3.57a3,3,0,0,0,6-.59,3.08,3.08,0,0,0-.06-.61l-1.53-7.67V25.84l4.78-4.78,4.37-4.37v4.5l-3,9a1,1,0,0,0,.64,1.28.89.89,0,0,0,.32.05h1L43,39.37a3,3,0,0,0,2.67,3.32l.33,0h0A3,3,0,0,0,49,40l.83-8.34L50.65,40a3,3,0,0,0,3,2.68h0a3,3,0,0,0,3-3c0-.11,0-.21,0-.32l-.78-7.85h1a1,1,0,0,0,1-1,1,1,0,0,0-.05-.33l-3-9V19l.78.9a3,3,0,0,0,4.71-3.78Zm-13.62-11a3,3,0,1,1,3,3.05A3,3,0,0,1,46.77,5.09ZM30.5,13.22a3,3,0,1,1-3.05,3A3,3,0,0,1,30.5,13.22ZM8.13,5.09a3,3,0,1,1,3,3.05A3,3,0,0,1,8.13,5.09ZM16,13.52a1,1,0,0,0-1.74.72v7.12s0,.06,0,.1L16,39.59a1,1,0,0,1-.87,1.08H15a1,1,0,0,1-1-.87L12.19,24.29a1,1,0,0,0-1.13-.89,1,1,0,0,0-.89.89L8.34,39.8a1,1,0,0,1-1,.87H7.31a1,1,0,0,1-1-1s0-.08,0-.12L8.13,21.46V16.27a1,1,0,0,0-1.78-.66l-2.57,3A1,1,0,0,1,2,18a1,1,0,0,1,.2-.6l5.4-7.19h7.2l5.5,5.51v2.2ZM33.85,24.7a1,1,0,0,0-.3.72v6.1a1.23,1.23,0,0,0,0,.2l1.56,7.78v0a.88.88,0,0,1,0,.17,1,1,0,0,1-1.94.18L31.5,31.32a1,1,0,0,0-1.2-.79,1,1,0,0,0-.79.79L27.8,39.88a1,1,0,0,1-1,.79.93.93,0,0,1-.75-.35,1,1,0,0,1-.2-.82l1.55-7.78a.65.65,0,0,0,0-.2v-6.1a1,1,0,0,0-.3-.72l-4.78-4.78V17.71l3.35,3.35a1,1,0,0,0,.72.3h8.13a1,1,0,0,0,.72-.3l3.35-3.35v2.21ZM58,19a1,1,0,0,1-.74-.36l-2.56-3a1,1,0,0,0-1.79.66v5.09a1.25,1.25,0,0,0,.05.32l2.61,7.81h-.74a1,1,0,0,0-1,1v.1l.88,9v0a1,1,0,0,1-.87,1.08h-.16a1,1,0,0,1-1-.85l-.93-9.41a1,1,0,0,0-1-.92h-1.8a1,1,0,0,0-1,.92L47,39.81a1,1,0,0,1-1,.86h0a1,1,0,0,1-1-1v-.12l.88-9A1,1,0,0,0,45,29.49h-.84l2.61-7.81a1.25,1.25,0,0,0,.05-.32V14.24A1,1,0,0,0,45,13.52l-4.36,4.36v-2.2l5.5-5.51h7.21l5.38,7.19a1,1,0,0,1-.18,1.39A1,1,0,0,1,58,19Z"/></g></g></g></svg>