<svg xmlns="http://www.w3.org/2000/svg" viewBox="0 0 43.3 63.39"><title>Asset 10</title><g id="Layer_2" data-name="Layer 2"><g id="Layer_1-2" data-name="Layer 1"><path d="M35.91,38.61a1.06,1.06,0,0,0-1.06,1V62.33a1.06,1.06,0,0,0,2.12,0V39.66A1.06,1.06,0,0,0,35.91,38.61Z"/><path d="M30.25,15.12a1,1,0,0,0-1.42,0L24.92,19H21.09a1.06,1.06,0,1,0,0,2.11H29A1.06,1.06,0,1,0,29,19H27.9l2.42-2.42A1,1,0,0,0,30.25,15.12Z"/><path d="M42,34.24a17.15,17.15,0,0,0-6.43-7.94l-3.31-2.2a13.73,13.73,0,1,0-19.37-1.37,13.56,13.56,0,0,0,2.92,2.53l-1.44,1A46.35,46.35,0,0,0,.6,41.71,4.91,4.91,0,0,0,0,44.05v.78a4.86,4.86,0,0,0,1.4,3.42,4.8,4.8,0,0,0,3.39,1.41H9.51V62.33a1.06,1.06,0,1,0,2.11,0V49.66h9.52a4.18,4.18,0,0,0,4.19-4.17,4.89,4.89,0,0,0,0-.66l1.49-2a49.33,49.33,0,0,0,7.47-14l.23-.68A15.09,15.09,0,0,1,40,35a16,16,0,0,1,1.17,6.08V62.33a1.06,1.06,0,1,0,2.11,0V41.11A18,18,0,0,0,42,34.24ZM4.79,47.55a2.68,2.68,0,0,1-1.88-.79,2.74,2.74,0,0,1-.8-1.93v-.78a2.83,2.83,0,0,1,.34-1.33,44.6,44.6,0,0,1,7.32-9.79l1,8.28H7.39a1.06,1.06,0,0,0,0,2.11H11l.5,4.23ZM28,3.16l-7.07,3-4.1-2A11.51,11.51,0,0,1,28,3.16ZM15,5.54l3.33,1.67-6,2.53A11.56,11.56,0,0,1,15,5.54ZM11.72,12.3,30.24,4.5A11.6,11.6,0,0,1,32,6.12L12,16.59A11.09,11.09,0,0,1,11.72,12.3Zm1.51,7.33c-.19-.33-.37-.67-.53-1L33.23,7.85a11.61,11.61,0,0,1-20,11.78Zm.39,27.92L11.68,31.11c.79-.71,1.6-1.37,2.43-2l4.61,18.45Zm9-.62a2.1,2.1,0,0,1-1.49.62H20.9l-1.06-4.23h1.28a2.16,2.16,0,0,1,1.53.67A2.11,2.11,0,0,1,22.63,46.93Zm9.62-18.79a47.2,47.2,0,0,1-7.16,13.45l-.82,1.07c-.05,0-.08-.12-.13-.17a4.26,4.26,0,0,0-3-1.28H19.31L16,27.74l1.91-1.36a13.63,13.63,0,0,0,12.56-.95l2.22,1.47C32.56,27.16,32.45,27.55,32.25,28.14Z"/></g></g></svg>