<svg xmlns="http://www.w3.org/2000/svg" viewBox="0 0 52 52"><title>Asset 5</title><g id="Layer_2" data-name="Layer 2"><g id="Layer_1-2" data-name="Layer 1"><path d="M0,49.83v1.09A1.09,1.09,0,0,0,1.08,52H50.92A1.09,1.09,0,0,0,52,50.92V49.83Z"/><path d="M20.58,19.5H3.25a1.08,1.08,0,0,0-1.08,1.08V50.92A1.08,1.08,0,0,0,3.25,52H20.58a1.09,1.09,0,0,0,1.09-1.08V20.58A1.09,1.09,0,0,0,20.58,19.5ZM19.5,49.83H4.33V21.67H19.5Z"/><path d="M48.75,6.5H31.42a1.09,1.09,0,0,0-1.09,1.08V50.92A1.09,1.09,0,0,0,31.42,52H48.75a1.08,1.08,0,0,0,1.08-1.08V7.58A1.08,1.08,0,0,0,48.75,6.5ZM47.67,49.83H32.5V8.67H47.67Z"/><path d="M41.17,0H11.92a1.09,1.09,0,0,0-1.09,1.08V17.33H13V2.17H40.08V4.33h2.17V1.08A1.09,1.09,0,0,0,41.17,0Z"/><rect x="6.5" y="23.83" width="2.17" height="19.5"/><rect x="10.83" y="23.83" width="2.17" height="19.5"/><rect x="15.17" y="23.83" width="2.17" height="19.5"/><rect x="31.42" y="11.92" width="11.92" height="2.17"/><rect x="31.42" y="17.33" width="11.92" height="2.17"/><rect x="31.42" y="22.75" width="11.92" height="2.17"/><rect x="31.42" y="28.17" width="11.92" height="2.17"/><rect x="31.42" y="33.58" width="11.92" height="2.17"/><rect x="31.42" y="39" width="11.92" height="2.17"/><rect x="16.25" y="5.42" width="2.17" height="3.25"/><rect x="16.25" y="11.92" width="2.17" height="3.25"/><rect x="20.58" y="11.92" width="2.17" height="3.25"/><rect x="20.58" y="5.42" width="2.17" height="3.25"/><rect x="24.92" y="5.42" width="2.17" height="3.25"/><rect x="24.92" y="11.92" width="2.17" height="3.25"/><rect x="24.92" y="18.42" width="2.17" height="3.25"/><rect x="24.92" y="24.92" width="2.17" height="3.25"/><rect x="24.92" y="31.42" width="2.17" height="3.25"/><rect x="24.92" y="37.92" width="2.17" height="3.25"/><path d="M41.17,44.42H35.75a1.08,1.08,0,0,0-1.08,1.08v5.42h2.16V46.58h3.25v4.34h2.17V45.5A1.08,1.08,0,0,0,41.17,44.42Z"/><path d="M16.25,45.5H7.58A1.08,1.08,0,0,0,6.5,46.58v4.34H8.67V47.67h6.5v3.25h2.16V46.58A1.08,1.08,0,0,0,16.25,45.5Z"/></g></g></svg>